<svg width="592" height="590" xmlns="http://www.w3.org/2000/svg">

 <g>
  <title>Layer 1</title>
  <path id="svg_1" fill="#000" d="m301.86255,588.702c-0.6,-29.052 -7.4,-57.944 -8,-87c106.316,29.947 222.38,-23.911 272.24,-122c14.37,-28.254 25.38,-62.021 25.76,-94c0.14,-12.148 2.41,-24.27 -7.3,-33.671c-7.47,-7.23 -16.13,-6.949 -25.7,-7.368c-7.04,-0.309 -13.92,-0.961 -21,-0.961c-35.65,-0.002 -71.342,-4 -107,-4c-0.709,-8.134 -3.942,-16.207 -6.28,-24c-4.1,-13.664 -8.291,-27.308 -12.296,-41c-12.889,-44.066 -25.808,-88.263 -39.768,-132c-2.961,-9.277 -4.579,-20.624 -9.636,-28.996c-7.933,-13.135 -24.485,-17.131 -38.02,-10.676c-11.403,5.438 -14.32,16.873 -18.601,27.672c-8.564,21.601 -16.698,43.372 -25.196,65c-5.193,13.215 -10.23,28.514 -26.203,31.532c-11.848,2.239 -24.061,-3.017 -30.12,-13.532c-6.451,-11.194 -9.687,-25.647 -13.304,-38c-4.713,-16.094 -10.268,-32.092 -15.576,-48c-1.929,-5.781 -3.886,-11.397 -8.185,-15.907c-8.953,-9.391 -24.647,-11.214 -35.815,-4.73c-8.662,5.03 -11.746,13.773 -15.05,22.637c-3.736,10.021 -7.599,19.993 -11.374,30c-17.966,47.632 -35.843,95.3 -53.626,143c-13.686,36.709 -27.548,73.345 -41.374,110c-10.216,27.087 -22.804,54.39 -27.962,83c-7.997,44.358 3.609,93.314 31.4,129c10.647,13.673 22.961,25.666 36.986,35.848c17.879,12.979 39.408,21.965 61,26.487c22.732,4.761 45.052,3.242 68,2.68c33.986,-0.833 68.018,-1.015 102,-1.015m187,-304c-2.56,20.278 6.1,39.949 25,49.626c7.48,3.826 15.04,4.473 23,6.374c-1.31,7.377 -5.39,14.369 -8.76,21c-8.78,17.273 -20.56,33.317 -34.24,47c-36.029,36.042 -84.643,58.73 -136,59.985c-30.613,0.749 -62.761,-7.526 -90,-21.233c-21.633,-10.886 -40.458,-26.082 -56.911,-43.752c-7.92,-8.506 -13.705,-21.46 -23.104,-28.2c-10.034,-7.195 -23.821,-3.256 -29.899,7.2c-8.794,15.126 7.558,31.266 16.784,42c12.478,14.519 26.606,28.316 42.13,39.575c5.537,4.016 11.204,7.746 17,11.375c2.867,1.795 7.119,3.463 8.972,6.429c1.526,2.441 0.998,5.884 1.032,8.621c0.058,4.7 0.957,9.293 0.996,14l-63,0c-17.583,0 -34.964,0.411 -52,-4.721c-19.724,-5.942 -37.182,-17.998 -50.826,-33.279c-6.127,-6.862 -11.306,-14.783 -15.415,-23c-9.202,-18.405 -13.553,-39.453 -11.589,-60c1.638,-17.149 7.915,-32.972 13.777,-49c5.6,-15.313 10.918,-30.727 16.629,-46c4.945,-13.227 8.652,-27.46 15.209,-40c10.047,-19.214 27.626,-34.957 48.215,-41.997c31.949,-10.925 69.703,-3.021 82.456,31.997c3.448,9.468 2.784,18.237 3.714,28c1.063,11.168 3.267,22.642 7.703,33c14.887,34.763 45.057,59.81 82.127,67.335c39.836,8.086 82.124,-11.187 105.844,-43.335c5.636,-7.638 10.004,-16.214 13.552,-25c1.408,-3.487 2.294,-10.614 5.332,-12.972c2.809,-2.181 8.931,-1.028 12.272,-1.028l30,0m-360,-29c-1.998,10.76 -1.757,22.424 4.118,32c12.654,20.624 43.205,24.498 60.792,7.816c7.465,-7.082 12.22,-18.469 11.961,-28.816c-0.074,-2.955 -0.272,-8.861 -3.305,-10.397c-3.063,-1.551 -8.225,-0.603 -11.566,-0.603l-26,0l-36,0m242,1c0.526,12.255 -0.032,22.987 -8.329,32.999c-16.153,19.493 -48.364,18.364 -62.566,-2.999c-6.285,-9.454 -6.105,-19.129 -6.105,-30l77,0z"/>
 </g>
</svg>